<?xml version="1.0" encoding="UTF-8"?><svg id="Warstwa_2" xmlns="http://www.w3.org/2000/svg" viewBox="0 0 705.39 140.65"><defs><style>.cls-1{fill:#fff;}</style></defs><g id="Warstwa_1-2"><path class="cls-1" d="m109.59,111.61l-16.1,16.1v-12.78l20.67-20.67c.61-.61.95-1.42.95-2.28s-.34-1.67-.95-2.28c-1.26-1.26-3.31-1.26-4.56,0l-16.1,16.1v-63.68c0-1.78-1.45-3.23-3.23-3.23s-3.23,1.45-3.23,3.23v20.17l-26.14-26.14V11.11l8.02,8.02c1.22,1.22,3.34,1.22,4.56,0,.61-.61.95-1.42.95-2.28s-.34-1.67-.95-2.28L59.83.91c-1.22-1.22-3.35-1.22-4.56,0l-13.65,13.65c-.61.61-.95,1.42-.95,2.28s.34,1.67.95,2.28c1.22,1.22,3.35,1.22,4.56,0l8.26-8.26v25.05l-26.37,26.37v-20.17c0-1.78-1.45-3.23-3.23-3.23s-3.23,1.45-3.23,3.23v63.68l-16.1-16.1c-1.22-1.22-3.35-1.22-4.56,0-.61.61-.95,1.42-.95,2.28s.34,1.67.95,2.28l20.67,20.67v12.78l-16.1-16.1c-1.22-1.22-3.35-1.22-4.56,0-.61.61-.95,1.42-.95,2.28s.34,1.67.95,2.28l21.61,21.61c.15.15.32.29.5.41.07.05.14.09.28.15.09.05.19.1.28.14.09.04.18.07.36.12.08.03.17.05.24.07.42.09.86.08,1.26,0,.09-.02.17-.04.34-.09.09-.03.19-.05.27-.09.1-.04.2-.09.34-.17.07-.04.15-.08.22-.12.18-.12.34-.25.49-.41l27.32-27.32v26.96c0,1.78,1.45,3.23,3.23,3.23s3.23-1.45,3.23-3.23v-26.72l27.08,27.08c.15.15.32.29.49.4.07.05.14.08.27.15.1.05.19.11.29.15.09.04.18.07.35.12.08.03.16.05.25.07.42.09.87.08,1.25,0,.09-.02.18-.04.34-.09.09-.03.19-.05.27-.09.1-.04.2-.09.35-.18.07-.04.14-.07.2-.12.18-.12.35-.26.5-.41l21.61-21.61c.61-.61.95-1.42.95-2.28s-.34-1.67-.95-2.28c-1.26-1.26-3.31-1.26-4.56,0Zm-23.9-41.53l-24.8,24.8v-49.6l24.8,24.8Zm1.34,7.79v49.84l-24.92-24.92,24.92-24.92Zm-34.05,24.92l-24.92,24.92v-49.84l24.92,24.92Zm1.46-57.75v50.07l-25.04-25.04,25.04-25.04Zm36.62,92.53s0,0,0,0h0s0,0,0,0Z"/><g><path class="cls-1" d="m190.86,122.69l-5.63-23.38c-2.69-12.36-5.88-16.4-15.55-16.4h-5.39v39.79h-10.16V35.52c5.88-1.35,12.36-2.2,18.85-2.2,13.71,0,24.24,6.49,24.24,21.79,0,12-7.1,20.93-13.59,22.53,6.12,1.59,8.32,6.12,10.77,15.79l6.98,29.26h-10.53Zm-26.57-48.85h6.86c9.06,0,15.42-7.59,15.42-17.26s-5.63-14.08-14.2-14.08c-3.31,0-6,.61-8.08,1.22v30.12Z"/><path class="cls-1" d="m256.84,91.96h-26.32l-9.06,30.73h-9.79l28.65-88.14h8.32l28.04,88.14h-10.9l-8.94-30.73Zm-23.01-9.06h19.95l-10.04-33.54-9.92,33.54Z"/><path class="cls-1" d="m342.05,118.65c-4.41,2.94-11.88,5.26-19.46,5.26-24.12,0-35.38-19.95-35.38-44.44,0-26.32,14.69-46.15,36.85-46.15,5.51,0,10.9,1.22,15.79,3.67l-1.84,9.43c-4.28-2.45-9.06-3.92-15.18-3.92-14.08,0-24.85,14.81-24.85,35.01s7.1,37.09,25.83,37.09c3.3,0,6.24-.86,8.08-2.33v-29.38h-12.85v-9.06h23.01v44.81Z"/><path class="cls-1" d="m373.02,51.68v71h-9.06V34.54h10.28l33.05,70.51V34.54h9.06v88.14h-10.28l-33.05-71Z"/><path class="cls-1" d="m476.95,91.96h-26.32l-9.06,30.73h-9.79l28.65-88.14h8.32l28.04,88.14h-10.9l-8.94-30.73Zm-23.01-9.06h19.96l-10.04-33.54-9.92,33.54Z"/><path class="cls-1" d="m548.94,122.69l-5.63-23.38c-2.69-12.36-5.88-16.4-15.55-16.4h-5.39v39.79h-10.16V35.52c5.88-1.35,12.37-2.2,18.85-2.2,13.71,0,24.24,6.49,24.24,21.79,0,12-7.1,20.93-13.59,22.53,6.12,1.59,8.32,6.12,10.77,15.79l6.98,29.26h-10.53Zm-26.57-48.85h6.86c9.06,0,15.43-7.59,15.43-17.26s-5.63-14.08-14.2-14.08c-3.31,0-6,.61-8.08,1.22v30.12Z"/><path class="cls-1" d="m602.68,123.91c-21.55,0-30.48-23.5-30.48-44.81,0-25.46,11.14-45.79,31.46-45.79,18.97,0,30.36,18.73,30.36,44.56,0,23.87-11.26,46.03-31.34,46.03Zm0-81.41c-12.73,0-19.71,16.4-19.71,35.38,0,16.65,5.88,36.85,20.69,36.85,13.47,0,19.71-17.51,19.71-35.62,0-20.57-7.47-36.6-20.69-36.6Z"/><path class="cls-1" d="m690.7,34.54h11.88l-28.52,40.64,31.34,47.5h-12.73l-28.03-43.46v43.46h-10.16V34.54h10.16v37.95l26.08-37.95Z"/></g></g></svg>